<svg xmlns="http://www.w3.org/2000/svg" xmlns:xlink="http://www.w3.org/1999/xlink" xmlns:lucid="lucid" width="811.26" height="440.28"><g transform="translate(1000.4224900987448 -33.03368288778178)" lucid:page-tab-id="0_0"><path d="M-960 162.1v10.36m0 10.36v20.7m0 10.37v20.7m0 10.36v20.72m0 10.35v20.72m0 10.35v20.72m0 10.35v20.72m0 10.35v20.7m0 10.37v20.7m0 10.37v20.7m0 10.36v10.36M-960 472.8v.5M-646.04 158.53V169m0 10.5v20.94m0 10.47v20.97m0 10.47v20.95m0 10.47v20.95m0 10.48v20.95m0 10.48v20.95m0 10.48V389m0 10.48v20.95m0 10.48v20.96m0 10.48v10.48" stroke="#fff" fill="none"/><path d="M-645.56 158.55h-.95v-.52h.94z" stroke="#fff" stroke-width=".05" fill="#fff"/><path d="M-646.04 472.8v.52M-285.2 158.53V169m0 10.5v20.94m0 10.47v20.97m0 10.47v20.95m0 10.47v20.95m0 10.48v20.95m0 10.48v20.95m0 10.48V389m0 10.48v20.95m0 10.48v20.96m0 10.48v10.48" stroke="#fff" fill="none"/><path d="M-284.73 158.55h-.95v-.52h.95z" stroke="#fff" stroke-width=".05" fill="#fff"/><path d="M-285.2 472.8v.52" stroke="#fff" fill="none"/><path d="M-305.2 201.32a8 8 0 0 1 8-8h24a8 8 0 0 1 8 8v224a8 8 0 0 1-8 8h-24a8 8 0 0 1-8-8zM-664.96 201.32a8 8 0 0 1 8-8h24a8 8 0 0 1 8 8v224a8 8 0 0 1-8 8h-24a8 8 0 0 1-8-8zM-380.24 42.03a8 8 0 0 1 8-8h174.08a8 8 0 0 1 8 8v107a8 8 0 0 1-8 8h-174.08a8 8 0 0 1-8-8z" stroke="#fff" stroke-width="2" fill="#8080b6"/><use xlink:href="#a" transform="matrix(1,0,0,1,-372.2406192775197,42.03368291035281) translate(22.76373333333332 59.71653333333333)"/><use xlink:href="#b" transform="matrix(1,0,0,1,-372.2406192775197,42.03368291035281) translate(88.368 59.71653333333333)"/><path d="M-940.25 85.62c0 10.9-8.84 19.75-19.75 19.75-10.9 0-19.75-8.84-19.75-19.75 0-10.9 8.84-19.75 19.75-19.75 10.9 0 19.75 8.84 19.75 19.75z" stroke="#fff" fill="#fff"/><path d="M-960 105.37v47.3a27.6 27.6 0 0 0 4.28 14.76l35.72 56.44m-40-63.2l-40 63.2m0-98.75h80" stroke="#fff" fill="none"/><path d="M-1000 73.87a8 8 0 0 1 8-8h64a8 8 0 0 1 8 8v164a8 8 0 0 1-8 8h-64a8 8 0 0 1-8-8z" fill="none"/><use xlink:href="#c" transform="matrix(1,0,0,1,-1080,223.87070941861134) translate(95.6216 17.216533333333334)"/><path d="M-957.17 309.7h274.82M-957.15 309.7h-.52" stroke="#fff" fill="none"/><path d="M-667.58 309.7l-14.27 4.63v-9.27z" stroke="#fff" fill="#fff"/><use xlink:href="#d" transform="matrix(1,0,0,1,-856.462677433969,313.6992765723235) translate(0.005000000000002558 15.346614583333334)"/><path d="M-959.5 343.03h636.9M-959.5 343.03h-.5" stroke="#fff" fill="none"/><path d="M-307.82 343.03l-14.27 4.64v-9.27z" stroke="#fff" fill="#fff"/><use xlink:href="#d" transform="matrix(1,0,0,1,-856.2028174209817,347.0301964039581) translate(0.005000000000002558 15.346614583333334)"/><path d="M-741.08 42.03a8 8 0 0 1 8-8H-559a8 8 0 0 1 8 8v107a8 8 0 0 1-8 8h-174.08a8 8 0 0 1-8-8z" stroke="#fff" stroke-width="2" fill="#8080b6"/><use xlink:href="#e" transform="matrix(1,0,0,1,-733.07461760574,42.03368291035281) translate(25.871999999999993 59.71653333333333)"/><use xlink:href="#b" transform="matrix(1,0,0,1,-733.07461760574,42.03368291035281) translate(85.25973333333333 59.71653333333333)"/><path d="M-959.5 375.02h277.15M-959.5 375.02h-.5" stroke="#fff" fill="none"/><path d="M-667.58 375.02l-14.27 4.64v-9.27z" stroke="#fff" fill="#fff"/><g><use xlink:href="#f" transform="matrix(1,0,0,1,-919.6688377211983,379.02454647283713) translate(0 16.50173611111111)"/></g><defs><path fill="#fff" d="M528-512c1 103-62 164-143 190 59 93 121 182 188 268l54 29V0H506l-38-28c-69-84-120-176-167-282h-94v257c31 7 58 13 85 24V0H29v-29c27-13 52-18 82-24v-593c-32-6-57-14-82-25v-29c93 3 180-8 268-8 138 0 230 58 231 196zm-99 0c0-121-103-160-222-139v299h72c92 1 150-67 150-160" id="g"/><path fill="#fff" d="M307-50c44 0 103-15 125-36l14 16c-29 50-88 82-165 82C119 12 43-88 41-250c-2-160 74-260 226-262 146-2 212 109 182 262H137c3 118 52 197 170 200zm53-244c9-89-12-177-97-174-96 4-114 65-123 174h220" id="h"/><path fill="#fff" d="M623-450c-20-4-39-13-55-24v-26h170v26c-14 9-33 17-57 24L539 0l-53 12c-39-122-90-232-118-366h-3C333-231 290-118 252 0l-52 12L43-450c-19-7-37-13-53-24v-26h208v25c-18 10-36 19-57 25 33 122 78 232 100 364h2l15-74 108-330 30-10c44 139 97 268 133 414h2c25-127 62-242 92-364" id="i"/><path fill="#fff" d="M415-353c0 100-10 198-2 294l69 10v21c-39 18-83 39-139 38-14-31-13-67-15-111h-5C306-35 258 4 177 12 35 25-13-191 112-244c57-24 129-30 212-36 11-104 1-206-116-186-12 1-24 3-35 8l-47 120h-26c-12-37-24-81-27-125 50-30 110-49 188-49 108 0 154 55 154 159zM135-140c-1 55 30 91 82 90 61-1 91-43 108-87v-105c-102 2-189 4-190 102" id="j"/><path fill="#fff" d="M31-476c47-18 94-35 156-36v106h4c30-56 78-109 163-106 11 25 25 48 23 87H244c-24 16-45 42-57 79v297c31 3 56 11 80 24V0H31v-25c22-12 41-17 66-24v-393l-66-8v-26" id="k"/><path fill="#fff" d="M532-28c-43 19-86 39-146 38l-9-109h-4C355-37 314 12 238 12 91 12 43-86 41-247c-2-159 81-261 231-262 50 0 68 3 104 16v-189l-76-8v-26c46-17 105-35 166-36v695l66 8v21zM137-247c2 101 24 197 121 197 72 0 104-52 118-115v-282c-27-15-55-18-99-18-103 0-142 104-140 218" id="l"/><path fill="#fff" d="M142-42c84 43 202-40 136-120S56-246 56-387c0-137 194-144 310-102-6 47-12 89-25 131h-25l-38-102c-60-22-139-1-132 64 10 92 120 101 177 151 31 27 62 56 62 110C386 21 171 37 46-17c3-50 13-94 27-134h25" id="m"/><g id="a"><use transform="matrix(0.016533333333333334,0,0,0.016533333333333334,0,0)" xlink:href="#g"/><use transform="matrix(0.016533333333333334,0,0,0.016533333333333334,10.217600000000001,0)" xlink:href="#h"/><use transform="matrix(0.016533333333333334,0,0,0.016533333333333334,18.517333333333333,0)" xlink:href="#i"/><use transform="matrix(0.016533333333333334,0,0,0.016533333333333334,30.5536,0)" xlink:href="#j"/><use transform="matrix(0.016533333333333334,0,0,0.016533333333333334,38.90293333333334,0)" xlink:href="#k"/><use transform="matrix(0.016533333333333334,0,0,0.016533333333333334,45.251733333333334,0)" xlink:href="#l"/><use transform="matrix(0.016533333333333334,0,0,0.016533333333333334,54.427733333333336,0)" xlink:href="#m"/></g><path fill="#fff" d="M152-350c0 202 106 334 319 305 15-2 24-8 29-13l47-124h26c7 39 14 105 11 153-41 30-106 41-175 41C172 12 53-111 53-350c0-229 114-357 335-362 82-2 138 9 190 34 0 59-7 120-15 172h-26l-52-144c-17-9-60-10-87-10-172 0-246 130-246 310" id="n"/><path fill="#fff" d="M276 12C114 12 41-89 41-250s78-262 235-262c164 0 234 99 236 262 2 158-86 262-236 262zm-8-480c-100 0-133 95-131 218 2 121 37 218 156 218 94 0 125-98 123-218-2-118-34-218-148-218" id="o"/><path fill="#fff" d="M344-512c130 0 167 79 167 210v253c27 5 49 13 66 24V0H362v-25c18-9 38-17 59-24v-237c-2-90-16-164-102-164-75 0-110 52-132 109v292c21 4 41 12 60 24V0H31v-25c17-9 39-17 66-24v-393l-66-8v-26c45-16 95-35 156-36 1 37-1 77 1 112 26-55 77-112 156-112" id="p"/><path fill="#fff" d="M218 12C131 12 94-38 95-132v-318H15v-26c25-16 52-27 80-34v-85c25-16 47-38 90-36v131h150v50H185v290c0 70 16 110 76 110 27 0 71-3 91-12l7 15c-33 31-79 59-141 59" id="q"/><path fill="#fff" d="M309-50c45 2 80-15 105-34l13 14c-23 46-82 83-153 82C113 10 44-90 41-250c-3-159 81-261 231-262 61 0 114 11 153 31-4 43-16 110-31 142h-27l-42-119c-13-8-21-10-46-10-112 0-142 83-142 217 0 116 56 197 172 201" id="r"/><g id="b"><use transform="matrix(0.016533333333333334,0,0,0.016533333333333334,0,0)" xlink:href="#n"/><use transform="matrix(0.016533333333333334,0,0,0.016533333333333334,10.250666666666666,0)" xlink:href="#o"/><use transform="matrix(0.016533333333333334,0,0,0.016533333333333334,19.3936,0)" xlink:href="#p"/><use transform="matrix(0.016533333333333334,0,0,0.016533333333333334,29.214399999999998,0)" xlink:href="#q"/><use transform="matrix(0.016533333333333334,0,0,0.016533333333333334,35.34826666666667,0)" xlink:href="#k"/><use transform="matrix(0.016533333333333334,0,0,0.016533333333333334,41.69706666666667,0)" xlink:href="#j"/><use transform="matrix(0.016533333333333334,0,0,0.016533333333333334,50.04640000000001,0)" xlink:href="#r"/><use transform="matrix(0.016533333333333334,0,0,0.016533333333333334,57.73440000000001,0)" xlink:href="#q"/></g><path fill="#fff" d="M370 12C157 12 53-135 53-350s104-362 317-362 317 147 317 362S583 12 370 12zm-8-672c-160 0-202 145-202 310 0 168 55 310 219 310 156 0 201-148 201-310 0-168-54-310-218-310" id="s"/><g id="c"><use transform="matrix(0.016533333333333334,0,0,0.016533333333333334,0,0)" xlink:href="#s"/><use transform="matrix(0.016533333333333334,0,0,0.016533333333333334,12.234666666666667,0)" xlink:href="#i"/><use transform="matrix(0.016533333333333334,0,0,0.016533333333333334,24.270933333333332,0)" xlink:href="#p"/><use transform="matrix(0.016533333333333334,0,0,0.016533333333333334,34.09173333333333,0)" xlink:href="#h"/><use transform="matrix(0.016533333333333334,0,0,0.016533333333333334,42.408,0)" xlink:href="#k"/></g><path fill="#fff" d="M172-543c0-365 197-575 553-575 119 0 231 20 336 59l-62 158c-100-38-189-57-268-57-247 0-371 138-371 413 0 271 120 406 361 406 105 0 212-21 321-62v160C953 0 843 20 713 20c-347 1-541-210-541-563" id="t"/><path fill="#fff" d="M1112-551c0 331-186 571-502 571-301 0-495-251-495-571 0-330 184-567 501-567 302 0 496 249 496 567zM614-131c207 0 310-140 310-420 0-277-104-416-312-416-206 0-309 139-309 416 0 280 104 420 311 420" id="u"/><path fill="#fff" d="M887 0v-707c0-173-79-260-238-260-205 0-307 133-307 398V0H160v-1098h147l27 148h10c69-112 181-168 336-168 259 0 389 134 389 401V0H887" id="v"/><path fill="#fff" d="M1026-301c0 225-197 321-448 321-165 0-290-23-375-69v-166c129 57 252 86 370 86 183 0 275-54 275-162 0-38-16-71-49-99s-108-63-226-106c-156-57-253-112-293-160s-61-105-61-171c2-338 524-340 789-217l-60 149c-121-48-228-72-319-72-157 0-236 44-236 133 0 41 17 74 51 98s111 57 232 101c141 51 234 101 280 151s70 111 70 183" id="w"/><path fill="#fff" d="M1020-150v138C933 9 849 20 768 20 527 20 406-95 406-324v-637H139v-94l267-49 77-287h105v293h438v137H588v637c0 130 64 195 192 195 62 0 142-7 240-21" id="x"/><path fill="#fff" d="M442-897c93-139 173-221 377-221 79 0 159 15 240 45l-49 166c-82-30-157-45-224-45-221 0-340 134-340 360V0H264v-1098h148l22 201h8" id="y"/><path fill="#fff" d="M578-131c239 0 309-137 309-397v-570h182V0H922l-27-147h-10C815-36 704 20 551 20c-261 0-391-134-391-401v-717h182v707c0 173 79 260 236 260" id="z"/><g id="d"><use transform="matrix(0.008072916666666667,0,0,0.008072916666666667,0,0)" xlink:href="#t"/><use transform="matrix(0.008072916666666667,0,0,0.008072916666666667,9.921614583333334,0)" xlink:href="#u"/><use transform="matrix(0.008072916666666667,0,0,0.008072916666666667,19.843229166666667,0)" xlink:href="#v"/><use transform="matrix(0.008072916666666667,0,0,0.008072916666666667,29.76484375,0)" xlink:href="#w"/><use transform="matrix(0.008072916666666667,0,0,0.008072916666666667,39.686458333333334,0)" xlink:href="#x"/><use transform="matrix(0.008072916666666667,0,0,0.008072916666666667,49.60807291666667,0)" xlink:href="#y"/><use transform="matrix(0.008072916666666667,0,0,0.008072916666666667,59.52968750000001,0)" xlink:href="#z"/><use transform="matrix(0.008072916666666667,0,0,0.008072916666666667,69.45130208333335,0)" xlink:href="#t"/><use transform="matrix(0.008072916666666667,0,0,0.008072916666666667,79.37291666666668,0)" xlink:href="#x"/></g><path fill="#fff" d="M58-35c4-61 13-127 25-181h26l41 147c21 19 43 30 88 29 88-3 153-41 153-127 0-131-166-134-245-203-44-38-87-82-85-163 3-122 85-176 208-179 71-2 146 12 191 33-2 60-13 121-24 172h-26l-40-137c-25-11-66-16-104-16-67-1-119 41-113 108 11 132 164 141 245 209 44 37 88 78 86 156C480-49 385 9 242 12 172 14 94-8 58-35" id="A"/><path fill="#fff" d="M14-716c45-18 106-33 166-36v478h26c49-55 100-116 143-176-17-5-33-13-49-24v-26h193v26c-24 10-48 18-76 24-43 56-96 115-144 165 58 77 123 163 187 236l56 24V0H392c-78-73-123-157-179-238l-33-10v199c22 4 44 12 65 24V0H24v-25c22-11 44-19 66-24v-633l-76-8v-26" id="B"/><path fill="#fff" d="M197-49c26 7 46 13 66 24V0H41v-25c21-11 41-17 66-24v-393l-66-8v-26c46-16 95-35 156-36v463zm-45-563c-37 0-64-22-64-58s27-59 64-59 63 23 63 59-26 58-63 58" id="C"/><path fill="#fff" d="M48-351c0-111 82-161 199-161 69 0 117 12 153 43 39-27 80-46 123-58 15 20 21 63 2 81H420c17 24 25 56 25 95 1 125-117 180-256 158-16 20-31 59 5 75C298-72 485-85 485 58c0 118-112 151-235 154-119 3-220-35-220-130C30-3 93-25 158-48c-26-12-51-34-51-70 0-34 38-67 59-81-68-16-118-74-118-152zm220 519c72-1 127-18 127-87 0-97-134-90-213-120-41 25-62 49-62 101 0 79 62 107 148 106zm-21-636c-80 0-109 40-109 117 0 74 34 117 109 118s108-49 108-118c0-74-31-117-108-117" id="D"/><g id="e"><use transform="matrix(0.016533333333333334,0,0,0.016533333333333334,0,0)" xlink:href="#A"/><use transform="matrix(0.016533333333333334,0,0,0.016533333333333334,8.861866666666668,0)" xlink:href="#q"/><use transform="matrix(0.016533333333333334,0,0,0.016533333333333334,14.995733333333334,0)" xlink:href="#j"/><use transform="matrix(0.016533333333333334,0,0,0.016533333333333334,23.345066666666668,0)" xlink:href="#B"/><use transform="matrix(0.016533333333333334,0,0,0.016533333333333334,31.876266666666666,0)" xlink:href="#C"/><use transform="matrix(0.016533333333333334,0,0,0.016533333333333334,36.8528,0)" xlink:href="#p"/><use transform="matrix(0.016533333333333334,0,0,0.016533333333333334,46.6736,0)" xlink:href="#D"/></g><path fill="#fff" d="M631-1118c283 0 470 204 465 491v113H322c5 250 120 375 344 375 130 0 253-25 370-76v160C925-5 804 20 672 20c-329 0-539-224-539-561 0-331 182-577 498-577zM326-662h573c0-203-91-305-272-305-183 0-284 102-301 305" id="E"/><path fill="#fff" d="M1243 324H-16V184h1259v140" id="F"/><path fill="#fff" d="M813 0c-67-308-137-613-199-926h-6C551-608 477-306 408 0H219L-4-1098h162c53 313 118 604 155 936h6c53-329 132-625 201-936h193c63 300 147 629 194 936h6c45-366 103-603 162-936h158L1008 0H813" id="G"/><path fill="#fff" d="M596-1118c288 2 430 92 430 366V0H895l-37-152h-8C752-34 680 17 483 20 272 23 135-98 135-307c0-221 170-337 510-348l203-7c15-197-55-305-244-305-98 0-207 27-328 82l-63-137c131-64 258-96 383-96zm-72 991c194 0 325-116 322-311v-99c-251 15-522-6-522 232 0 119 67 178 200 178" id="H"/><path fill="#fff" d="M137-547c0-322 136-571 430-571 137 0 245 53 322 160h12c-24-215-7-376-12-598h182V0H924l-27-147h-8C814-36 706 20 567 20c-294 0-430-246-430-567zm463 416c241 0 288-157 289-416 0-151-23-259-69-323s-121-97-222-97c-181 0-272 141-272 422 0 276 91 414 274 414" id="I"/><g id="f"><use transform="matrix(0.008680555555555556,0,0,0.008680555555555556,0,0)" xlink:href="#w"/><use transform="matrix(0.008680555555555556,0,0,0.008680555555555556,10.668402777777779,0)" xlink:href="#E"/><use transform="matrix(0.008680555555555556,0,0,0.008680555555555556,21.336805555555557,0)" xlink:href="#x"/><use transform="matrix(0.008680555555555556,0,0,0.008680555555555556,32.005208333333336,0)" xlink:href="#F"/><use transform="matrix(0.008680555555555556,0,0,0.008680555555555556,42.673611111111114,0)" xlink:href="#y"/><use transform="matrix(0.008680555555555556,0,0,0.008680555555555556,53.34201388888889,0)" xlink:href="#E"/><use transform="matrix(0.008680555555555556,0,0,0.008680555555555556,64.01041666666667,0)" xlink:href="#G"/><use transform="matrix(0.008680555555555556,0,0,0.008680555555555556,74.67881944444446,0)" xlink:href="#H"/><use transform="matrix(0.008680555555555556,0,0,0.008680555555555556,85.34722222222223,0)" xlink:href="#y"/><use transform="matrix(0.008680555555555556,0,0,0.008680555555555556,96.015625,0)" xlink:href="#I"/><use transform="matrix(0.008680555555555556,0,0,0.008680555555555556,106.68402777777777,0)" xlink:href="#w"/><use transform="matrix(0.008680555555555556,0,0,0.008680555555555556,117.35243055555554,0)" xlink:href="#F"/><use transform="matrix(0.008680555555555556,0,0,0.008680555555555556,128.02083333333331,0)" xlink:href="#t"/><use transform="matrix(0.008680555555555556,0,0,0.008680555555555556,138.6892361111111,0)" xlink:href="#u"/><use transform="matrix(0.008680555555555556,0,0,0.008680555555555556,149.35763888888886,0)" xlink:href="#v"/><use transform="matrix(0.008680555555555556,0,0,0.008680555555555556,160.02604166666663,0)" xlink:href="#x"/><use transform="matrix(0.008680555555555556,0,0,0.008680555555555556,170.6944444444444,0)" xlink:href="#y"/><use transform="matrix(0.008680555555555556,0,0,0.008680555555555556,181.36284722222217,0)" xlink:href="#H"/><use transform="matrix(0.008680555555555556,0,0,0.008680555555555556,192.03124999999994,0)" xlink:href="#t"/><use transform="matrix(0.008680555555555556,0,0,0.008680555555555556,202.69965277777771,0)" xlink:href="#x"/></g></defs></g></svg>