<svg xmlns="http://www.w3.org/2000/svg" xmlns:xlink="http://www.w3.org/1999/xlink" xmlns:lucid="lucid" width="462.02" height="540.5"><g transform="translate(-1258.99999996328 -759.4991839680796)" lucid:page-tab-id="0_0"><path d="M1355.04 907.05v10.07m0 10.06v20.13m0 10.07v20.12m0 10.06v20.12m0 10.07v20.12m0 10.06v20.13m0 10.06v20.13m0 10.06v20.13m0 10.07v20.12m0 10.07v20.1m0 10.07V1219m0 10.06v20.13m0 10.05v20.13m0 10.06v10.06" stroke="#fff" fill="none"/><path d="M1355.5 907.07h-.94v-.52h.95z" stroke="#fff" stroke-width=".05" fill="#fff"/><path d="M1355.04 1299.5v.5" stroke="#fff" fill="none"/><path d="M1336.1 998a8 8 0 0 1 8-8h24a8 8 0 0 1 8 8v254a8 8 0 0 1-8 8h-24a8 8 0 0 1-8-8zM1260 790.55a8 8 0 0 1 8-8h174.08a8 8 0 0 1 8 8v107a8 8 0 0 1-8 8H1268a8 8 0 0 1-8-8z" stroke="#fff" stroke-width="2" fill="#8080b6"/><use xlink:href="#a" transform="matrix(1,0,0,1,1268.0000000000002,790.5550449590681) translate(25.871999999999993 59.71653333333333)"/><use xlink:href="#b" transform="matrix(1,0,0,1,1268.0000000000002,790.5550449590681) translate(85.25973333333333 59.71653333333333)"/><path d="M1700.34 779.75c0 10.9-8.84 19.75-19.75 19.75-10.9 0-19.76-8.84-19.76-19.75 0-10.9 8.85-19.75 19.75-19.75s19.74 8.84 19.74 19.75z" stroke="#fff" fill="#fff"/><path d="M1680.6 799.5v47.3a27.6 27.6 0 0 0 4.27 14.76L1720.6 918m-40-63.2l-40 63.2m0-98.75h80" stroke="#fff" fill="none"/><path d="M1640.6 768a8 8 0 0 1 8-8h64a8 8 0 0 1 8 8v164a8 8 0 0 1-8 8h-64a8 8 0 0 1-8-8z" fill="none"/><use xlink:href="#c" transform="matrix(1,0,0,1,1560.593379050701,917.9999999999999) translate(96.82853333333333 17.216533333333334)"/><path d="M1683.58 858.6v10.5m0 10.5v21m0 10.5v21m0 10.5v21m0 10.48v21m0 10.5v21m0 10.5v20.98m0 10.5v21m0 10.5v21m0 10.48v21m0 10.5v21m0 10.5v20.98m0 10.5v21m0 10.5v20.98m0 10.5v10.5M1683.58 858.62v-3.5M1683.58 1299.5v.5M1683.08 1070h-290.6M1683.07 1070h.5" stroke="#fff" fill="none"/><path d="M1377.73 1070l14.26-4.63v9.27z" stroke="#fff" fill="#fff"/><use xlink:href="#d" transform="matrix(1,0,0,1,1503.1736997581813,1074.0000380253064) translate(0 16.50173611111111)"/><path d="M1683.08 1140h-289.6M1683.07 1140h.5" stroke="#fff" fill="none"/><path d="M1378.73 1140l14.26-4.64v9.27z" stroke="#fff" fill="#fff"/><use xlink:href="#e" transform="matrix(1,0,0,1,1455.6659010375088,1143.999020938474) translate(0 16.50173611111111)"/><path d="M1381.72 1208.9h-5.1v-.94h5.1zm15.32 0h-10.2v-.94h10.2zm15.33 0h-10.22v-.94h10.22zm15.32 0h-10.23v-.94h10.22zm11.46 0h-6.36v-.94h6.36zm202.6 0h-10.17v-.94h10.16zm15.26 0h-10.17v-.94h10.17zm10.17 0h-5.1v-.94h5.1zm-40.7 0h-5.97v-.94h5.97z" stroke="#fff" stroke-width=".05" fill="#fff"/><path fill="#fff"/><path stroke="#fff" stroke-width=".05" fill="#fff"/><path d="M1681.96 1208.44l-14.27 4.63v-9.27z" fill="#fff"/><path d="M1683.5 1208.44l-16.28 5.3v-10.6zm-15.33 3.98l12.25-3.98-12.25-3.98z" stroke="#fff" stroke-width=".05" fill="#fff"/><use xlink:href="#f" transform="matrix(1,0,0,1,1439.1633103433442,1198.09161029759) translate(0 16.50173611111111)"/><defs><path fill="#fff" d="M58-35c4-61 13-127 25-181h26l41 147c21 19 43 30 88 29 88-3 153-41 153-127 0-131-166-134-245-203-44-38-87-82-85-163 3-122 85-176 208-179 71-2 146 12 191 33-2 60-13 121-24 172h-26l-40-137c-25-11-66-16-104-16-67-1-119 41-113 108 11 132 164 141 245 209 44 37 88 78 86 156C480-49 385 9 242 12 172 14 94-8 58-35" id="g"/><path fill="#fff" d="M218 12C131 12 94-38 95-132v-318H15v-26c25-16 52-27 80-34v-85c25-16 47-38 90-36v131h150v50H185v290c0 70 16 110 76 110 27 0 71-3 91-12l7 15c-33 31-79 59-141 59" id="h"/><path fill="#fff" d="M415-353c0 100-10 198-2 294l69 10v21c-39 18-83 39-139 38-14-31-13-67-15-111h-5C306-35 258 4 177 12 35 25-13-191 112-244c57-24 129-30 212-36 11-104 1-206-116-186-12 1-24 3-35 8l-47 120h-26c-12-37-24-81-27-125 50-30 110-49 188-49 108 0 154 55 154 159zM135-140c-1 55 30 91 82 90 61-1 91-43 108-87v-105c-102 2-189 4-190 102" id="i"/><path fill="#fff" d="M14-716c45-18 106-33 166-36v478h26c49-55 100-116 143-176-17-5-33-13-49-24v-26h193v26c-24 10-48 18-76 24-43 56-96 115-144 165 58 77 123 163 187 236l56 24V0H392c-78-73-123-157-179-238l-33-10v199c22 4 44 12 65 24V0H24v-25c22-11 44-19 66-24v-633l-76-8v-26" id="j"/><path fill="#fff" d="M197-49c26 7 46 13 66 24V0H41v-25c21-11 41-17 66-24v-393l-66-8v-26c46-16 95-35 156-36v463zm-45-563c-37 0-64-22-64-58s27-59 64-59 63 23 63 59-26 58-63 58" id="k"/><path fill="#fff" d="M344-512c130 0 167 79 167 210v253c27 5 49 13 66 24V0H362v-25c18-9 38-17 59-24v-237c-2-90-16-164-102-164-75 0-110 52-132 109v292c21 4 41 12 60 24V0H31v-25c17-9 39-17 66-24v-393l-66-8v-26c45-16 95-35 156-36 1 37-1 77 1 112 26-55 77-112 156-112" id="l"/><path fill="#fff" d="M48-351c0-111 82-161 199-161 69 0 117 12 153 43 39-27 80-46 123-58 15 20 21 63 2 81H420c17 24 25 56 25 95 1 125-117 180-256 158-16 20-31 59 5 75C298-72 485-85 485 58c0 118-112 151-235 154-119 3-220-35-220-130C30-3 93-25 158-48c-26-12-51-34-51-70 0-34 38-67 59-81-68-16-118-74-118-152zm220 519c72-1 127-18 127-87 0-97-134-90-213-120-41 25-62 49-62 101 0 79 62 107 148 106zm-21-636c-80 0-109 40-109 117 0 74 34 117 109 118s108-49 108-118c0-74-31-117-108-117" id="m"/><g id="a"><use transform="matrix(0.016533333333333334,0,0,0.016533333333333334,0,0)" xlink:href="#g"/><use transform="matrix(0.016533333333333334,0,0,0.016533333333333334,8.861866666666668,0)" xlink:href="#h"/><use transform="matrix(0.016533333333333334,0,0,0.016533333333333334,14.995733333333334,0)" xlink:href="#i"/><use transform="matrix(0.016533333333333334,0,0,0.016533333333333334,23.345066666666668,0)" xlink:href="#j"/><use transform="matrix(0.016533333333333334,0,0,0.016533333333333334,31.876266666666666,0)" xlink:href="#k"/><use transform="matrix(0.016533333333333334,0,0,0.016533333333333334,36.8528,0)" xlink:href="#l"/><use transform="matrix(0.016533333333333334,0,0,0.016533333333333334,46.6736,0)" xlink:href="#m"/></g><path fill="#fff" d="M152-350c0 202 106 334 319 305 15-2 24-8 29-13l47-124h26c7 39 14 105 11 153-41 30-106 41-175 41C172 12 53-111 53-350c0-229 114-357 335-362 82-2 138 9 190 34 0 59-7 120-15 172h-26l-52-144c-17-9-60-10-87-10-172 0-246 130-246 310" id="n"/><path fill="#fff" d="M276 12C114 12 41-89 41-250s78-262 235-262c164 0 234 99 236 262 2 158-86 262-236 262zm-8-480c-100 0-133 95-131 218 2 121 37 218 156 218 94 0 125-98 123-218-2-118-34-218-148-218" id="o"/><path fill="#fff" d="M31-476c47-18 94-35 156-36v106h4c30-56 78-109 163-106 11 25 25 48 23 87H244c-24 16-45 42-57 79v297c31 3 56 11 80 24V0H31v-25c22-12 41-17 66-24v-393l-66-8v-26" id="p"/><path fill="#fff" d="M309-50c45 2 80-15 105-34l13 14c-23 46-82 83-153 82C113 10 44-90 41-250c-3-159 81-261 231-262 61 0 114 11 153 31-4 43-16 110-31 142h-27l-42-119c-13-8-21-10-46-10-112 0-142 83-142 217 0 116 56 197 172 201" id="q"/><g id="b"><use transform="matrix(0.016533333333333334,0,0,0.016533333333333334,0,0)" xlink:href="#n"/><use transform="matrix(0.016533333333333334,0,0,0.016533333333333334,10.250666666666666,0)" xlink:href="#o"/><use transform="matrix(0.016533333333333334,0,0,0.016533333333333334,19.3936,0)" xlink:href="#l"/><use transform="matrix(0.016533333333333334,0,0,0.016533333333333334,29.214399999999998,0)" xlink:href="#h"/><use transform="matrix(0.016533333333333334,0,0,0.016533333333333334,35.34826666666667,0)" xlink:href="#p"/><use transform="matrix(0.016533333333333334,0,0,0.016533333333333334,41.69706666666667,0)" xlink:href="#i"/><use transform="matrix(0.016533333333333334,0,0,0.016533333333333334,50.04640000000001,0)" xlink:href="#q"/><use transform="matrix(0.016533333333333334,0,0,0.016533333333333334,57.73440000000001,0)" xlink:href="#h"/></g><path fill="#fff" d="M307-50c44 0 103-15 125-36l14 16c-29 50-88 82-165 82C119 12 43-88 41-250c-2-160 74-260 226-262 146-2 212 109 182 262H137c3 118 52 197 170 200zm53-244c9-89-12-177-97-174-96 4-114 65-123 174h220" id="r"/><g id="c"><use transform="matrix(0.016533333333333334,0,0,0.016533333333333334,0,0)" xlink:href="#g"/><use transform="matrix(0.016533333333333334,0,0,0.016533333333333334,8.861866666666668,0)" xlink:href="#h"/><use transform="matrix(0.016533333333333334,0,0,0.016533333333333334,14.995733333333334,0)" xlink:href="#i"/><use transform="matrix(0.016533333333333334,0,0,0.016533333333333334,23.345066666666668,0)" xlink:href="#j"/><use transform="matrix(0.016533333333333334,0,0,0.016533333333333334,31.677866666666667,0)" xlink:href="#r"/><use transform="matrix(0.016533333333333334,0,0,0.016533333333333334,39.99413333333334,0)" xlink:href="#p"/></g><path fill="#fff" d="M1026-301c0 225-197 321-448 321-165 0-290-23-375-69v-166c129 57 252 86 370 86 183 0 275-54 275-162 0-38-16-71-49-99s-108-63-226-106c-156-57-253-112-293-160s-61-105-61-171c2-338 524-340 789-217l-60 149c-121-48-228-72-319-72-157 0-236 44-236 133 0 41 17 74 51 98s111 57 232 101c141 51 234 101 280 151s70 111 70 183" id="s"/><path fill="#fff" d="M1020-150v138C933 9 849 20 768 20 527 20 406-95 406-324v-637H139v-94l267-49 77-287h105v293h438v137H588v637c0 130 64 195 192 195 62 0 142-7 240-21" id="t"/><path fill="#fff" d="M596-1118c288 2 430 92 430 366V0H895l-37-152h-8C752-34 680 17 483 20 272 23 135-98 135-307c0-221 170-337 510-348l203-7c15-197-55-305-244-305-98 0-207 27-328 82l-63-137c131-64 258-96 383-96zm-72 991c194 0 325-116 322-311v-99c-251 15-522-6-522 232 0 119 67 178 200 178" id="u"/><path fill="#fff" d="M383-553l135-152 395-393h222L641-623 1163 0H950L524-504l-129 82V0H215v-1556h180c-3 337 9 689-16 1003h4" id="v"/><path fill="#fff" d="M631-1118c283 0 470 204 465 491v113H322c5 250 120 375 344 375 130 0 253-25 370-76v160C925-5 804 20 672 20c-329 0-539-224-539-561 0-331 182-577 498-577zM326-662h573c0-203-91-305-272-305-183 0-284 102-301 305" id="w"/><g id="d"><use transform="matrix(0.008680555555555556,0,0,0.008680555555555556,0,0)" xlink:href="#s"/><use transform="matrix(0.008680555555555556,0,0,0.008680555555555556,10.668402777777779,0)" xlink:href="#t"/><use transform="matrix(0.008680555555555556,0,0,0.008680555555555556,21.336805555555557,0)" xlink:href="#u"/><use transform="matrix(0.008680555555555556,0,0,0.008680555555555556,32.005208333333336,0)" xlink:href="#v"/><use transform="matrix(0.008680555555555556,0,0,0.008680555555555556,42.673611111111114,0)" xlink:href="#w"/></g><path fill="#fff" d="M188-739c-1-248 156-381 410-379 57 0 107 7 150 20h378v113l-196 27c43 57 65 128 65 213 2 253-212 385-489 346-67 37-100 82-100 133 0 56 54 84 161 84h187c216-2 358 93 358 297 0 251-188 377-565 377-145 0-255-26-331-80S102 283 102 186c0-141 80-231 240-270-64-31-96-83-96-154 0-75 44-139 133-192-109-41-191-166-191-309zm406 221c149 0 223-77 223-230 0-159-75-239-225-239s-225 81-225 242c0 151 76 227 227 227zm346 649c0-146-78-149-248-149H504c-153 0-230 66-230 198 0 116 90 174 271 174 263 0 395-74 395-223" id="x"/><path fill="#fff" d="M1243 324H-16V184h1259v140" id="y"/><path fill="#fff" d="M739-1436c0 71-43 115-106 115-71 0-107-38-107-115 0-76 36-114 107-114s106 38 106 114zM541-954l-269-21v-123h451v955l352 20V0H197v-123l344-20v-811" id="z"/><path fill="#fff" d="M887 0v-707c0-173-79-260-238-260-205 0-307 133-307 398V0H160v-1098h147l27 148h10c69-112 181-168 336-168 259 0 389 134 389 401V0H887" id="A"/><path fill="#fff" d="M866-1417c-164 2-207 56-211 215v104h389v137H655V0H473v-961H156v-110l317-33c-17-319 78-463 389-463 86 0 170 12 252 35l-41 143c-69-19-138-28-207-28" id="B"/><path fill="#fff" d="M1112-551c0 331-186 571-502 571-301 0-495-251-495-571 0-330 184-567 501-567 302 0 496 249 496 567zM614-131c207 0 310-140 310-420 0-277-104-416-312-416-206 0-309 139-309 416 0 280 104 420 311 420" id="C"/><g id="e"><use transform="matrix(0.008680555555555556,0,0,0.008680555555555556,0,0)" xlink:href="#x"/><use transform="matrix(0.008680555555555556,0,0,0.008680555555555556,10.668402777777779,0)" xlink:href="#w"/><use transform="matrix(0.008680555555555556,0,0,0.008680555555555556,21.336805555555557,0)" xlink:href="#t"/><use transform="matrix(0.008680555555555556,0,0,0.008680555555555556,32.005208333333336,0)" xlink:href="#y"/><use transform="matrix(0.008680555555555556,0,0,0.008680555555555556,42.673611111111114,0)" xlink:href="#s"/><use transform="matrix(0.008680555555555556,0,0,0.008680555555555556,53.34201388888889,0)" xlink:href="#t"/><use transform="matrix(0.008680555555555556,0,0,0.008680555555555556,64.01041666666667,0)" xlink:href="#u"/><use transform="matrix(0.008680555555555556,0,0,0.008680555555555556,74.67881944444446,0)" xlink:href="#v"/><use transform="matrix(0.008680555555555556,0,0,0.008680555555555556,85.34722222222223,0)" xlink:href="#w"/><use transform="matrix(0.008680555555555556,0,0,0.008680555555555556,96.015625,0)" xlink:href="#y"/><use transform="matrix(0.008680555555555556,0,0,0.008680555555555556,106.68402777777777,0)" xlink:href="#z"/><use transform="matrix(0.008680555555555556,0,0,0.008680555555555556,117.35243055555554,0)" xlink:href="#A"/><use transform="matrix(0.008680555555555556,0,0,0.008680555555555556,128.02083333333331,0)" xlink:href="#B"/><use transform="matrix(0.008680555555555556,0,0,0.008680555555555556,138.6892361111111,0)" xlink:href="#C"/></g><path fill="#fff" d="M616 20C261 20 84-232 84-735c0-500 178-750 534-750 171 0 301 65 392 195s137 316 137 557-46 426-138 557S786 20 616 20zm0-163c115 0 195-51 254-145 102-163 102-730-2-890-59-92-137-143-250-143-225 0-337 196-337 588 0 393 112 590 335 590" id="D"/><path fill="#fff" d="M1092-551c0 322-136 571-430 571-138 0-245-53-322-159h-12c24 220 7 402 12 631H158v-1590h147l27 148h8c73-112 181-168 322-168 294 0 430 246 430 567zM629-967c-241 0-288 156-289 416 0 151 24 259 70 323s120 97 221 97c181 0 272-141 272-422 0-276-91-414-274-414" id="E"/><path fill="#fff" d="M1075-221L152-672v-102l923-451v160L360-723l715 342v160" id="F"/><path fill="#fff" d="M1087-391c0 281-226 411-532 411-177 0-315-23-414-69v-178c141 57 279 86 414 86 233 0 350-80 350-240 0-69-24-123-71-160s-142-82-285-133c-139-49-239-106-299-174s-90-156-90-264c2-252 211-371 481-371 153 0 291 26 416 78l-64 164c-129-52-249-78-360-78-195 0-293 70-293 209 0 68 22 123 66 164s134 85 270 133c164 58 273 119 328 181s83 143 83 241" id="G"/><path fill="#fff" d="M1001 0H225v-123l295-20v-1176l-295-20v-123h776v123l-294 20v1176l294 20V0" id="H"/><path fill="#fff" d="M152-381l714-342-714-342v-160l923 451v102L152-221v-160" id="I"/><g id="f"><use transform="matrix(0.008680555555555556,0,0,0.008680555555555556,0,0)" xlink:href="#D"/><use transform="matrix(0.008680555555555556,0,0,0.008680555555555556,10.668402777777779,0)" xlink:href="#E"/><use transform="matrix(0.008680555555555556,0,0,0.008680555555555556,21.336805555555557,0)" xlink:href="#t"/><use transform="matrix(0.008680555555555556,0,0,0.008680555555555556,32.005208333333336,0)" xlink:href="#z"/><use transform="matrix(0.008680555555555556,0,0,0.008680555555555556,42.673611111111114,0)" xlink:href="#C"/><use transform="matrix(0.008680555555555556,0,0,0.008680555555555556,53.34201388888889,0)" xlink:href="#A"/><use transform="matrix(0.008680555555555556,0,0,0.008680555555555556,64.01041666666667,0)" xlink:href="#F"/><use transform="matrix(0.008680555555555556,0,0,0.008680555555555556,74.67881944444446,0)" xlink:href="#G"/><use transform="matrix(0.008680555555555556,0,0,0.008680555555555556,85.34722222222223,0)" xlink:href="#t"/><use transform="matrix(0.008680555555555556,0,0,0.008680555555555556,96.015625,0)" xlink:href="#u"/><use transform="matrix(0.008680555555555556,0,0,0.008680555555555556,106.68402777777777,0)" xlink:href="#v"/><use transform="matrix(0.008680555555555556,0,0,0.008680555555555556,117.35243055555554,0)" xlink:href="#w"/><use transform="matrix(0.008680555555555556,0,0,0.008680555555555556,128.02083333333331,0)" xlink:href="#H"/><use transform="matrix(0.008680555555555556,0,0,0.008680555555555556,138.6892361111111,0)" xlink:href="#A"/><use transform="matrix(0.008680555555555556,0,0,0.008680555555555556,149.35763888888886,0)" xlink:href="#B"/><use transform="matrix(0.008680555555555556,0,0,0.008680555555555556,160.02604166666663,0)" xlink:href="#C"/><use transform="matrix(0.008680555555555556,0,0,0.008680555555555556,170.6944444444444,0)" xlink:href="#I"/></g></defs></g></svg>