<svg xmlns="http://www.w3.org/2000/svg" xmlns:xlink="http://www.w3.org/1999/xlink" xmlns:lucid="lucid" width="810.76" height="622.5"><g transform="translate(-399.57750990125527 -782.0542289271478)" lucid:page-tab-id="0_0"><path d="M459.75 802.3c0 10.9-8.84 19.75-19.75 19.75-10.9 0-19.75-8.84-19.75-19.75 0-10.9 8.84-19.75 19.75-19.75 10.9 0 19.75 8.85 19.75 19.75z" stroke="#fff" fill="#fff"/><path d="M440 822.05v47.3a27.6 27.6 0 0 0 4.28 14.76L480 940.57m-40-63.2l-40 63.2m0-98.75h80" stroke="#fff" fill="none"/><path d="M400 790.55a8 8 0 0 1 8-8h64a8 8 0 0 1 8 8v164a8 8 0 0 1-8 8h-64a8 8 0 0 1-8-8z" fill="none"/><use xlink:href="#a" transform="matrix(1,0,0,1,320,940.5550449590681) translate(95.08444444444444 18.453333333333333)"/><path d="M440 878.8v9.72m0 9.72v19.46m0 9.72v19.46m0 9.73v19.46m0 9.73v19.44m0 9.73v19.45m0 9.73v19.45m0 9.73v19.46m0 9.7v19.47m0 9.72v19.45m0 9.73v19.45m0 9.73v19.45m0 9.74v19.45m0 9.72v19.45m0 9.73v19.46m0 9.72v19.46m0 9.72v19.46m0 9.73v19.45m0 9.73v9.72M440 1404.04v.5" stroke="#fff" fill="none"/><path d="M653.8 790.55a8 8 0 0 1 8-8h174.1a8 8 0 0 1 8 8v109a8 8 0 0 1-8 8H661.8a8 8 0 0 1-8-8z" stroke="#fff" fill="#8080b6"/><use xlink:href="#b" transform="matrix(1,0,0,1,661.8125251994908,790.5550449590681) translate(21.233333333333334 61.184444444444445)"/><use xlink:href="#c" transform="matrix(1,0,0,1,661.8125251994908,790.5550449590681) translate(85.0911111111111 61.184444444444445)"/><path d="M1019.76 790.55a8 8 0 0 1 8-8h174.08a8 8 0 0 1 8 8v109a8 8 0 0 1-8 8h-174.08a8 8 0 0 1-8-8z" stroke="#fff" fill="#8080b6"/><use xlink:href="#d" transform="matrix(1,0,0,1,1027.7593807224803,790.5550449590681) translate(17.891111111111115 61.184444444444445)"/><use xlink:href="#c" transform="matrix(1,0,0,1,1027.7593807224803,790.5550449590681) translate(88.43333333333334 61.184444444444445)"/><path d="M748.85 908.55v9.72m0 9.72v19.42m0 9.7v19.45m0 9.7v19.44m0 9.73v19.43m0 9.72V1064m0 9.72v19.43m0 9.72v19.43m0 9.72v19.43m0 9.7v19.44m0 9.7v19.44m0 9.72v19.43m0 9.7v19.44m0 9.7v19.44m0 9.72v19.43m0 9.72v19.43m0 9.7v19.44m0 9.72v9.72" stroke="#fff" fill="none"/><path d="M749.33 908.57h-.96v-.52h.96z" stroke="#fff" stroke-width=".05" fill="#fff"/><path d="M748.85 1404.04v.52M1114.8 908.55v9.72m0 9.72v19.42m0 9.7v19.45m0 9.7v19.44m0 9.73v19.43m0 9.72V1064m0 9.72v19.43m0 9.72v19.43m0 9.72v19.43m0 9.7v19.44m0 9.7v19.44m0 9.72v19.43m0 9.7v19.44m0 9.7v19.44m0 9.72v19.43m0 9.72v19.43m0 9.7v19.44m0 9.72v9.72" stroke="#fff" fill="none"/><path d="M1115.27 908.57h-.95v-.52h.95z" stroke="#fff" stroke-width=".05" fill="#fff"/><path d="M1114.8 1404.04v.52" stroke="#fff" fill="none"/><path d="M728.85 952.55a8 8 0 0 1 8-8h24a8 8 0 0 1 8 8v404a8 8 0 0 1-8 8h-24a8 8 0 0 1-8-8zM1095.87 952.55a8 8 0 0 1 8-8h24a8 8 0 0 1 8 8v404a8 8 0 0 1-8 8h-24a8 8 0 0 1-8-8z" stroke="#fff" fill="#8080b6"/><path d="M440.5 1024.55h271.97M440.5 1024.55h-.5" stroke="#fff" fill="none"/><path d="M727.23 1024.55l-14.26 4.64v-9.28z" stroke="#fff" fill="#fff"/><use xlink:href="#e" transform="matrix(1,0,0,1,547.0856713207397,1028.5539443343569) translate(0 16.50173611111111)"/><path d="M769.85 1091.14h33.5a6 6 0 0 1 6 6v19.14a6 6 0 0 1-6 6h-109a6 6 0 0 1-6-6v-19.14a6 6 0 0 1 6-6h17.62" stroke="#fff" fill="none"/><path d="M769.86 1091.6h-.5v-.94h.5z" stroke="#fff" stroke-width=".05" fill="#fff"/><path d="M726.73 1091.14l-14.26 4.63v-9.27z" stroke="#fff" fill="#fff"/><use xlink:href="#f" transform="matrix(1,0,0,1,775.9135444834195,1126.27902644421) translate(0 16.50173611111111)"/><path d="M769.85 1265.22H1079" stroke="#fff" fill="none"/><path d="M769.86 1265.7h-.5v-.95h.5z" stroke="#fff" stroke-width=".05" fill="#fff"/><path d="M1093.75 1265.22l-14.26 4.64v-9.27z" stroke="#fff" fill="#fff"/><use xlink:href="#g" transform="matrix(1,0,0,1,831.010535861674,1240.5270761259487) translate(0 16.50173611111111)"/><path d="M662.33 1206a6 6 0 0 1 6-6H974a6 6 0 0 1 6 6v8a14.48 14.48 0 0 1-4.24 10.24l-1.52 1.52A14.48 14.48 0 0 1 964 1230H668.33a6 6 0 0 1-6-6z" fill="#8080b6"/><path d="M980 1200v20l-10 10H662.33" stroke="#fff" stroke-width="2" fill="none"/><path d="M662.33 1206a6 6 0 0 1 6-6h519.74a6 6 0 0 1 6 6v113a6 6 0 0 1-6 6H668.33a6 6 0 0 1-6-6z" stroke="#fff" stroke-width="2" fill="none"/><use xlink:href="#h" transform="matrix(1,0,0,1,670.3312065615185,1200) translate(0 21.294240000000002)"/><use xlink:href="#i" transform="matrix(1,0,0,1,670.3312065615185,1200) translate(20.82456 21.294240000000002)"/><use xlink:href="#j" transform="matrix(1,0,0,1,670.3312065615185,1200) translate(63.662220000000005 21.294240000000002)"/><use xlink:href="#k" transform="matrix(1,0,0,1,670.3312065615185,1200) translate(80.0172 21.294240000000002)"/><use xlink:href="#l" transform="matrix(1,0,0,1,670.3312065615185,1200) translate(151.4133 21.294240000000002)"/><use xlink:href="#m" transform="matrix(1,0,0,1,670.3312065615185,1200) translate(183.16908 21.294240000000002)"/><use xlink:href="#n" transform="matrix(1,0,0,1,670.3312065615185,1200) translate(202.2192 21.294240000000002)"/><use xlink:href="#o" transform="matrix(1,0,0,1,670.3312065615185,1200) translate(253.34316 21.294240000000002)"/><path d="M662.33 1046a6 6 0 0 1 6-6h258a6 6 0 0 1 6 6v8a14.48 14.48 0 0 1-4.24 10.24l-1.53 1.52a14.48 14.48 0 0 1-10.24 4.24h-248a6 6 0 0 1-6-6z" fill="#8080b6"/><path d="M932.33 1040v20l-10 10h-260" stroke="#fff" stroke-width="2" fill="none"/><path d="M662.33 1046a6 6 0 0 1 6-6h280.7a6 6 0 0 1 6 6v113a6 6 0 0 1-6 6h-280.7a6 6 0 0 1-6-6z" stroke="#fff" stroke-width="2" fill="none"/><g><use xlink:href="#h" transform="matrix(1,0,0,1,670.3312065615185,1040) translate(0 21.294240000000002)"/><use xlink:href="#i" transform="matrix(1,0,0,1,670.3312065615185,1040) translate(20.82456 21.294240000000002)"/><use xlink:href="#j" transform="matrix(1,0,0,1,670.3312065615185,1040) translate(63.662220000000005 21.294240000000002)"/><use xlink:href="#p" transform="matrix(1,0,0,1,670.3312065615185,1040) translate(80.0172 21.294240000000002)"/><use xlink:href="#q" transform="matrix(1,0,0,1,670.3312065615185,1040) translate(131.86097999999998 21.294240000000002)"/><use xlink:href="#r" transform="matrix(1,0,0,1,670.3312065615185,1040) translate(160.8714 21.294240000000002)"/></g><path d="M727.85 1347.5v.96H664.2v-.95zm-271.47.96v-.95h47.78v.96z" stroke="#fff" stroke-width=".05" fill="#fff"/><path d="M455.88 1352.62l-14.26-4.63 14.26-4.65z" fill="#fff"/><path d="M456.36 1353.28l-16.28-5.3 16.28-5.28zm-13.2-5.3l12.25 4V1344z" stroke="#fff" stroke-width=".05" fill="#fff"/><path d="M728.35 1348.46h-.5v-.95h.5z" fill="#fff"/><path stroke="#fff" stroke-width=".05" fill="#fff"/><g><use xlink:href="#s" transform="matrix(1,0,0,1,504.16210023845986,1337.6391780549607) translate(0 16.50173611111111)"/><use xlink:href="#t" transform="matrix(1,0,0,1,504.16210023845986,1337.6391780549607) translate(64.01041666666667 16.50173611111111)"/><use xlink:href="#u" transform="matrix(1,0,0,1,504.16210023845986,1337.6391780549607) translate(85.34722222222223 16.50173611111111)"/></g><defs><path fill="#fff" d="M58-35c4-61 13-127 25-181h26l41 147c21 19 43 30 88 29 88-3 153-41 153-127 0-131-166-134-245-203-44-38-87-82-85-163 3-122 85-176 208-179 71-2 146 12 191 33-2 60-13 121-24 172h-26l-40-137c-25-11-66-16-104-16-67-1-119 41-113 108 11 132 164 141 245 209 44 37 88 78 86 156C480-49 385 9 242 12 172 14 94-8 58-35" id="v"/><path fill="#fff" d="M218 12C131 12 94-38 95-132v-318H15v-26c25-16 52-27 80-34v-85c25-16 47-38 90-36v131h150v50H185v290c0 70 16 110 76 110 27 0 71-3 91-12l7 15c-33 31-79 59-141 59" id="w"/><path fill="#fff" d="M415-353c0 100-10 198-2 294l69 10v21c-39 18-83 39-139 38-14-31-13-67-15-111h-5C306-35 258 4 177 12 35 25-13-191 112-244c57-24 129-30 212-36 11-104 1-206-116-186-12 1-24 3-35 8l-47 120h-26c-12-37-24-81-27-125 50-30 110-49 188-49 108 0 154 55 154 159zM135-140c-1 55 30 91 82 90 61-1 91-43 108-87v-105c-102 2-189 4-190 102" id="x"/><path fill="#fff" d="M14-716c45-18 106-33 166-36v478h26c49-55 100-116 143-176-17-5-33-13-49-24v-26h193v26c-24 10-48 18-76 24-43 56-96 115-144 165 58 77 123 163 187 236l56 24V0H392c-78-73-123-157-179-238l-33-10v199c22 4 44 12 65 24V0H24v-25c22-11 44-19 66-24v-633l-76-8v-26" id="y"/><path fill="#fff" d="M307-50c44 0 103-15 125-36l14 16c-29 50-88 82-165 82C119 12 43-88 41-250c-2-160 74-260 226-262 146-2 212 109 182 262H137c3 118 52 197 170 200zm53-244c9-89-12-177-97-174-96 4-114 65-123 174h220" id="z"/><path fill="#fff" d="M31-476c47-18 94-35 156-36v106h4c30-56 78-109 163-106 11 25 25 48 23 87H244c-24 16-45 42-57 79v297c31 3 56 11 80 24V0H31v-25c22-12 41-17 66-24v-393l-66-8v-26" id="A"/><g id="a"><use transform="matrix(0.017777777777777778,0,0,0.017777777777777778,0,0)" xlink:href="#v"/><use transform="matrix(0.017777777777777778,0,0,0.017777777777777778,9.528888888888888,0)" xlink:href="#w"/><use transform="matrix(0.017777777777777778,0,0,0.017777777777777778,16.124444444444443,0)" xlink:href="#x"/><use transform="matrix(0.017777777777777778,0,0,0.017777777777777778,25.10222222222222,0)" xlink:href="#y"/><use transform="matrix(0.017777777777777778,0,0,0.017777777777777778,34.06222222222222,0)" xlink:href="#z"/><use transform="matrix(0.017777777777777778,0,0,0.017777777777777778,43.00444444444444,0)" xlink:href="#A"/></g><path fill="#fff" d="M197-49c26 7 46 13 66 24V0H41v-25c21-11 41-17 66-24v-393l-66-8v-26c46-16 95-35 156-36v463zm-45-563c-37 0-64-22-64-58s27-59 64-59 63 23 63 59-26 58-63 58" id="B"/><path fill="#fff" d="M344-512c130 0 167 79 167 210v253c27 5 49 13 66 24V0H362v-25c18-9 38-17 59-24v-237c-2-90-16-164-102-164-75 0-110 52-132 109v292c21 4 41 12 60 24V0H31v-25c17-9 39-17 66-24v-393l-66-8v-26c45-16 95-35 156-36 1 37-1 77 1 112 26-55 77-112 156-112" id="C"/><path fill="#fff" d="M48-351c0-111 82-161 199-161 69 0 117 12 153 43 39-27 80-46 123-58 15 20 21 63 2 81H420c17 24 25 56 25 95 1 125-117 180-256 158-16 20-31 59 5 75C298-72 485-85 485 58c0 118-112 151-235 154-119 3-220-35-220-130C30-3 93-25 158-48c-26-12-51-34-51-70 0-34 38-67 59-81-68-16-118-74-118-152zm220 519c72-1 127-18 127-87 0-97-134-90-213-120-41 25-62 49-62 101 0 79 62 107 148 106zm-21-636c-80 0-109 40-109 117 0 74 34 117 109 118s108-49 108-118c0-74-31-117-108-117" id="D"/><g id="b"><use transform="matrix(0.017777777777777778,0,0,0.017777777777777778,0,0)" xlink:href="#v"/><use transform="matrix(0.017777777777777778,0,0,0.017777777777777778,9.528888888888888,0)" xlink:href="#w"/><use transform="matrix(0.017777777777777778,0,0,0.017777777777777778,16.124444444444443,0)" xlink:href="#x"/><use transform="matrix(0.017777777777777778,0,0,0.017777777777777778,25.10222222222222,0)" xlink:href="#y"/><use transform="matrix(0.017777777777777778,0,0,0.017777777777777778,34.275555555555556,0)" xlink:href="#B"/><use transform="matrix(0.017777777777777778,0,0,0.017777777777777778,39.626666666666665,0)" xlink:href="#C"/><use transform="matrix(0.017777777777777778,0,0,0.017777777777777778,50.18666666666667,0)" xlink:href="#D"/></g><path fill="#fff" d="M152-350c0 202 106 334 319 305 15-2 24-8 29-13l47-124h26c7 39 14 105 11 153-41 30-106 41-175 41C172 12 53-111 53-350c0-229 114-357 335-362 82-2 138 9 190 34 0 59-7 120-15 172h-26l-52-144c-17-9-60-10-87-10-172 0-246 130-246 310" id="E"/><path fill="#fff" d="M276 12C114 12 41-89 41-250s78-262 235-262c164 0 234 99 236 262 2 158-86 262-236 262zm-8-480c-100 0-133 95-131 218 2 121 37 218 156 218 94 0 125-98 123-218-2-118-34-218-148-218" id="F"/><path fill="#fff" d="M309-50c45 2 80-15 105-34l13 14c-23 46-82 83-153 82C113 10 44-90 41-250c-3-159 81-261 231-262 61 0 114 11 153 31-4 43-16 110-31 142h-27l-42-119c-13-8-21-10-46-10-112 0-142 83-142 217 0 116 56 197 172 201" id="G"/><g id="c"><use transform="matrix(0.017777777777777778,0,0,0.017777777777777778,0,0)" xlink:href="#E"/><use transform="matrix(0.017777777777777778,0,0,0.017777777777777778,11.022222222222222,0)" xlink:href="#F"/><use transform="matrix(0.017777777777777778,0,0,0.017777777777777778,20.85333333333333,0)" xlink:href="#C"/><use transform="matrix(0.017777777777777778,0,0,0.017777777777777778,31.413333333333334,0)" xlink:href="#w"/><use transform="matrix(0.017777777777777778,0,0,0.017777777777777778,38.00888888888889,0)" xlink:href="#A"/><use transform="matrix(0.017777777777777778,0,0,0.017777777777777778,44.83555555555556,0)" xlink:href="#x"/><use transform="matrix(0.017777777777777778,0,0,0.017777777777777778,53.81333333333333,0)" xlink:href="#G"/><use transform="matrix(0.017777777777777778,0,0,0.017777777777777778,62.08,0)" xlink:href="#w"/></g><path fill="#fff" d="M528-512c1 103-62 164-143 190 59 93 121 182 188 268l54 29V0H506l-38-28c-69-84-120-176-167-282h-94v257c31 7 58 13 85 24V0H29v-29c27-13 52-18 82-24v-593c-32-6-57-14-82-25v-29c93 3 180-8 268-8 138 0 230 58 231 196zm-99 0c0-121-103-160-222-139v299h72c92 1 150-67 150-160" id="H"/><path fill="#fff" d="M623-450c-20-4-39-13-55-24v-26h170v26c-14 9-33 17-57 24L539 0l-53 12c-39-122-90-232-118-366h-3C333-231 290-118 252 0l-52 12L43-450c-19-7-37-13-53-24v-26h208v25c-18 10-36 19-57 25 33 122 78 232 100 364h2l15-74 108-330 30-10c44 139 97 268 133 414h2c25-127 62-242 92-364" id="I"/><path fill="#fff" d="M532-28c-43 19-86 39-146 38l-9-109h-4C355-37 314 12 238 12 91 12 43-86 41-247c-2-159 81-261 231-262 50 0 68 3 104 16v-189l-76-8v-26c46-17 105-35 166-36v695l66 8v21zM137-247c2 101 24 197 121 197 72 0 104-52 118-115v-282c-27-15-55-18-99-18-103 0-142 104-140 218" id="J"/><path fill="#fff" d="M142-42c84 43 202-40 136-120S56-246 56-387c0-137 194-144 310-102-6 47-12 89-25 131h-25l-38-102c-60-22-139-1-132 64 10 92 120 101 177 151 31 27 62 56 62 110C386 21 171 37 46-17c3-50 13-94 27-134h25" id="K"/><g id="d"><use transform="matrix(0.017777777777777778,0,0,0.017777777777777778,0,0)" xlink:href="#H"/><use transform="matrix(0.017777777777777778,0,0,0.017777777777777778,10.986666666666666,0)" xlink:href="#z"/><use transform="matrix(0.017777777777777778,0,0,0.017777777777777778,19.91111111111111,0)" xlink:href="#I"/><use transform="matrix(0.017777777777777778,0,0,0.017777777777777778,32.85333333333333,0)" xlink:href="#x"/><use transform="matrix(0.017777777777777778,0,0,0.017777777777777778,41.83111111111111,0)" xlink:href="#A"/><use transform="matrix(0.017777777777777778,0,0,0.017777777777777778,48.65777777777778,0)" xlink:href="#J"/><use transform="matrix(0.017777777777777778,0,0,0.017777777777777778,58.52444444444444,0)" xlink:href="#K"/></g><path fill="#fff" d="M578-131c239 0 309-137 309-397v-570h182V0H922l-27-147h-10C815-36 704 20 551 20c-261 0-391-134-391-401v-717h182v707c0 173 79 260 236 260" id="L"/><path fill="#fff" d="M887 0v-707c0-173-79-260-238-260-205 0-307 133-307 398V0H160v-1098h147l27 148h10c69-112 181-168 336-168 259 0 389 134 389 401V0H887" id="M"/><path fill="#fff" d="M1026-301c0 225-197 321-448 321-165 0-290-23-375-69v-166c129 57 252 86 370 86 183 0 275-54 275-162 0-38-16-71-49-99s-108-63-226-106c-156-57-253-112-293-160s-61-105-61-171c2-338 524-340 789-217l-60 149c-121-48-228-72-319-72-157 0-236 44-236 133 0 41 17 74 51 98s111 57 232 101c141 51 234 101 280 151s70 111 70 183" id="N"/><path fill="#fff" d="M1020-150v138C933 9 849 20 768 20 527 20 406-95 406-324v-637H139v-94l267-49 77-287h105v293h438v137H588v637c0 130 64 195 192 195 62 0 142-7 240-21" id="O"/><path fill="#fff" d="M596-1118c288 2 430 92 430 366V0H895l-37-152h-8C752-34 680 17 483 20 272 23 135-98 135-307c0-221 170-337 510-348l203-7c15-197-55-305-244-305-98 0-207 27-328 82l-63-137c131-64 258-96 383-96zm-72 991c194 0 325-116 322-311v-99c-251 15-522-6-522 232 0 119 67 178 200 178" id="P"/><path fill="#fff" d="M383-553l135-152 395-393h222L641-623 1163 0H950L524-504l-129 82V0H215v-1556h180c-3 337 9 689-16 1003h4" id="Q"/><path fill="#fff" d="M631-1118c283 0 470 204 465 491v113H322c5 250 120 375 344 375 130 0 253-25 370-76v160C925-5 804 20 672 20c-329 0-539-224-539-561 0-331 182-577 498-577zM326-662h573c0-203-91-305-272-305-183 0-284 102-301 305" id="R"/><g id="e"><use transform="matrix(0.008680555555555556,0,0,0.008680555555555556,0,0)" xlink:href="#L"/><use transform="matrix(0.008680555555555556,0,0,0.008680555555555556,10.668402777777779,0)" xlink:href="#M"/><use transform="matrix(0.008680555555555556,0,0,0.008680555555555556,21.336805555555557,0)" xlink:href="#N"/><use transform="matrix(0.008680555555555556,0,0,0.008680555555555556,32.005208333333336,0)" xlink:href="#O"/><use transform="matrix(0.008680555555555556,0,0,0.008680555555555556,42.673611111111114,0)" xlink:href="#P"/><use transform="matrix(0.008680555555555556,0,0,0.008680555555555556,53.34201388888889,0)" xlink:href="#Q"/><use transform="matrix(0.008680555555555556,0,0,0.008680555555555556,64.01041666666667,0)" xlink:href="#R"/></g><path fill="#fff" d="M172-543c0-365 197-575 553-575 119 0 231 20 336 59l-62 158c-100-38-189-57-268-57-247 0-371 138-371 413 0 271 120 406 361 406 105 0 212-21 321-62v160C953 0 843 20 713 20c-347 1-541-210-541-563" id="S"/><path fill="#fff" d="M532-1413l-268-21v-122h451v1413l352 20V0H188v-123l344-20v-1270" id="T"/><path fill="#fff" d="M739-1436c0 71-43 115-106 115-71 0-107-38-107-115 0-76 36-114 107-114s106 38 106 114zM541-954l-269-21v-123h451v955l352 20V0H197v-123l344-20v-811" id="U"/><path fill="#fff" d="M977 0v-707c0-97-9-165-27-203s-47-57-88-57c-58 0-100 28-126 83s-40 148-40 278V0H535v-707c0-173-42-260-125-260-56 0-96 26-120 79s-36 160-36 319V0H92v-1098h127l27 148h10c45-112 112-168 201-168 109 0 180 61 213 182h6c51-121 124-182 219-182 85 0 147 30 186 92s58 165 58 309V0H977" id="V"/><g id="f"><use transform="matrix(0.008680555555555556,0,0,0.008680555555555556,0,0)" xlink:href="#S"/><use transform="matrix(0.008680555555555556,0,0,0.008680555555555556,10.668402777777779,0)" xlink:href="#T"/><use transform="matrix(0.008680555555555556,0,0,0.008680555555555556,21.336805555555557,0)" xlink:href="#P"/><use transform="matrix(0.008680555555555556,0,0,0.008680555555555556,32.005208333333336,0)" xlink:href="#U"/><use transform="matrix(0.008680555555555556,0,0,0.008680555555555556,42.673611111111114,0)" xlink:href="#V"/></g><path fill="#fff" d="M1092-551c0 322-136 571-430 571-138 0-245-53-322-159h-12c24 220 7 402 12 631H158v-1590h147l27 148h8c73-112 181-168 322-168 294 0 430 246 430 567zM629-967c-241 0-288 156-289 416 0 151 24 259 70 323s120 97 221 97c181 0 272-141 272-422 0-276-91-414-274-414" id="W"/><path fill="#fff" d="M137-547c0-322 136-571 430-571 137 0 245 53 322 160h12c-24-215-7-376-12-598h182V0H924l-27-147h-8C814-36 706 20 567 20c-294 0-430-246-430-567zm463 416c241 0 288-157 289-416 0-151-23-259-69-323s-121-97-222-97c-181 0-272 141-272 422 0 276 91 414 274 414" id="X"/><path fill="#fff" d="M1243 324H-16V184h1259v140" id="Y"/><path fill="#fff" d="M1112-551c0 331-186 571-502 571-301 0-495-251-495-571 0-330 184-567 501-567 302 0 496 249 496 567zM614-131c207 0 310-140 310-420 0-277-104-416-312-416-206 0-309 139-309 416 0 280 104 420 311 420" id="Z"/><g id="g"><use transform="matrix(0.008680555555555556,0,0,0.008680555555555556,0,0)" xlink:href="#L"/><use transform="matrix(0.008680555555555556,0,0,0.008680555555555556,10.668402777777779,0)" xlink:href="#W"/><use transform="matrix(0.008680555555555556,0,0,0.008680555555555556,21.336805555555557,0)" xlink:href="#X"/><use transform="matrix(0.008680555555555556,0,0,0.008680555555555556,32.005208333333336,0)" xlink:href="#P"/><use transform="matrix(0.008680555555555556,0,0,0.008680555555555556,42.673611111111114,0)" xlink:href="#O"/><use transform="matrix(0.008680555555555556,0,0,0.008680555555555556,53.34201388888889,0)" xlink:href="#R"/><use transform="matrix(0.008680555555555556,0,0,0.008680555555555556,64.01041666666667,0)" xlink:href="#Y"/><use transform="matrix(0.008680555555555556,0,0,0.008680555555555556,74.67881944444446,0)" xlink:href="#O"/><use transform="matrix(0.008680555555555556,0,0,0.008680555555555556,85.34722222222223,0)" xlink:href="#Z"/><use transform="matrix(0.008680555555555556,0,0,0.008680555555555556,96.015625,0)" xlink:href="#O"/><use transform="matrix(0.008680555555555556,0,0,0.008680555555555556,106.68402777777777,0)" xlink:href="#P"/><use transform="matrix(0.008680555555555556,0,0,0.008680555555555556,117.35243055555554,0)" xlink:href="#T"/><use transform="matrix(0.008680555555555556,0,0,0.008680555555555556,128.02083333333331,0)" xlink:href="#Y"/><use transform="matrix(0.008680555555555556,0,0,0.008680555555555556,138.6892361111111,0)" xlink:href="#W"/><use transform="matrix(0.008680555555555556,0,0,0.008680555555555556,149.35763888888886,0)" xlink:href="#Z"/><use transform="matrix(0.008680555555555556,0,0,0.008680555555555556,160.02604166666663,0)" xlink:href="#U"/><use transform="matrix(0.008680555555555556,0,0,0.008680555555555556,170.6944444444444,0)" xlink:href="#M"/><use transform="matrix(0.008680555555555556,0,0,0.008680555555555556,181.36284722222217,0)" xlink:href="#O"/><use transform="matrix(0.008680555555555556,0,0,0.008680555555555556,192.03124999999994,0)" xlink:href="#N"/></g><path fill="#fff" d="M83-700h189v42H168v847h104v41H83v-930" id="aa"/><path fill="#fff" d="M224-53c28 5 58 13 80 24V0H48v-29c26-12 53-20 80-24v-593c-28-6-55-15-80-25v-29h256v29c-23 10-53 20-80 25v593" id="ab"/><path fill="#fff" d="M107-509c-10-159 49-246 199-243 32 1 67 5 92 13-4 42-11 80-22 113h-25l-44-86c-116-8-111 98-110 212h115v50H197v401c35 4 67 12 96 24V0H41v-25c21-12 43-20 66-24v-401H31v-26c23-15 49-26 76-33" id="ac"/><g id="h"><use transform="matrix(0.01674,0,0,0.01674,0,0)" xlink:href="#aa"/><use transform="matrix(0.01674,0,0,0.01674,5.1391800000000005,0)" xlink:href="#ab"/><use transform="matrix(0.01674,0,0,0.01674,11.031660000000002,0)" xlink:href="#ac"/></g><g id="i"><use transform="matrix(0.01674,0,0,0.01674,0,0)" xlink:href="#K"/><use transform="matrix(0.01674,0,0,0.01674,7.24842,0)" xlink:href="#w"/><use transform="matrix(0.01674,0,0,0.01674,13.458960000000001,0)" xlink:href="#x"/><use transform="matrix(0.01674,0,0,0.01674,21.912660000000002,0)" xlink:href="#y"/><use transform="matrix(0.01674,0,0,0.01674,30.34962,0)" xlink:href="#z"/></g><g id="j"><use transform="matrix(0.01674,0,0,0.01674,0,0)" xlink:href="#B"/><use transform="matrix(0.01674,0,0,0.01674,5.038740000000001,0)" xlink:href="#K"/></g><path fill="#fff" d="M242 12C22 26 86-252 83-442l-66-8v-26c49-16 94-35 156-36 1 99-7 198-6 296 0 91 13 166 103 166 70 0 103-59 123-117v-275l-65-8v-26c48-16 94-35 155-36v455l66 8v21c-45 17-84 39-145 38l-7-119h-4C373-42 325 7 242 12" id="ad"/><path fill="#fff" d="M402-450c-21-5-39-13-55-24v-26h170v26c-15 11-36 18-57 24L283 0l-45 12L43-450c-19-7-37-15-53-24v-26h209v25c-18 10-35 19-57 25 45 121 95 237 136 363h2c31-131 82-241 122-363" id="ae"/><g id="k"><use transform="matrix(0.01674,0,0,0.01674,0,0)" xlink:href="#ad"/><use transform="matrix(0.01674,0,0,0.01674,9.60876,0)" xlink:href="#C"/><use transform="matrix(0.01674,0,0,0.01674,19.55232,0)" xlink:href="#ae"/><use transform="matrix(0.01674,0,0,0.01674,27.73818,0)" xlink:href="#z"/><use transform="matrix(0.01674,0,0,0.01674,36.1584,0)" xlink:href="#K"/><use transform="matrix(0.01674,0,0,0.01674,43.40682,0)" xlink:href="#w"/><use transform="matrix(0.01674,0,0,0.01674,49.617360000000005,0)" xlink:href="#z"/><use transform="matrix(0.01674,0,0,0.01674,58.037580000000005,0)" xlink:href="#J"/></g><g id="l"><use transform="matrix(0.01674,0,0,0.01674,0,0)" xlink:href="#x"/><use transform="matrix(0.01674,0,0,0.01674,8.453700000000001,0)" xlink:href="#C"/><use transform="matrix(0.01674,0,0,0.01674,18.397260000000003,0)" xlink:href="#J"/></g><g id="m"><use transform="matrix(0.01674,0,0,0.01674,0,0)" xlink:href="#B"/><use transform="matrix(0.01674,0,0,0.01674,5.038740000000001,0)" xlink:href="#C"/></g><path fill="#fff" d="M31-716c44-18 106-35 166-36v703c22 5 44 13 66 24V0H41v-25c22-11 44-19 66-24v-633l-76-8v-26" id="af"/><g id="n"><use transform="matrix(0.01674,0,0,0.01674,0,0)" xlink:href="#G"/><use transform="matrix(0.01674,0,0,0.01674,7.800840000000001,0)" xlink:href="#af"/><use transform="matrix(0.01674,0,0,0.01674,12.839580000000002,0)" xlink:href="#F"/><use transform="matrix(0.01674,0,0,0.01674,22.0968,0)" xlink:href="#K"/><use transform="matrix(0.01674,0,0,0.01674,29.34522,0)" xlink:href="#z"/><use transform="matrix(0.01674,0,0,0.01674,37.76544,0)" xlink:href="#J"/></g><path fill="#fff" d="M205 105c22-29 32-63 45-105L42-450c-21-6-36-14-53-24v-26h209v25c-14 9-33 18-57 25 48 120 107 229 147 358h2c30-126 74-238 110-358-20-4-38-12-55-24v-26h171v26c-14 9-33 17-57 24-67 182-120 386-201 554-29 60-65 97-136 111-14-24-26-57-34-86l13-24h104" id="ag"/><path fill="#fff" d="M224 230H35v-41h104v-847H35v-42h189v930" id="ah"/><g id="o"><use transform="matrix(0.01674,0,0,0.01674,0,0)" xlink:href="#G"/><use transform="matrix(0.01674,0,0,0.01674,7.800840000000001,0)" xlink:href="#ag"/><use transform="matrix(0.01674,0,0,0.01674,15.953220000000002,0)" xlink:href="#G"/><use transform="matrix(0.01674,0,0,0.01674,23.754060000000003,0)" xlink:href="#af"/><use transform="matrix(0.01674,0,0,0.01674,28.792800000000003,0)" xlink:href="#z"/><use transform="matrix(0.01674,0,0,0.01674,37.21302,0)" xlink:href="#ah"/></g><g id="p"><use transform="matrix(0.01674,0,0,0.01674,0,0)" xlink:href="#ae"/><use transform="matrix(0.01674,0,0,0.01674,8.18586,0)" xlink:href="#z"/><use transform="matrix(0.01674,0,0,0.01674,16.60608,0)" xlink:href="#K"/><use transform="matrix(0.01674,0,0,0.01674,23.854499999999998,0)" xlink:href="#w"/><use transform="matrix(0.01674,0,0,0.01674,30.06504,0)" xlink:href="#z"/><use transform="matrix(0.01674,0,0,0.01674,38.48526,0)" xlink:href="#J"/></g><path fill="#fff" d="M246 9C181 8 119-5 77-29v-653l-76-8v-26c47-17 105-33 166-36 1 116-3 238 2 351 18-60 74-111 147-111 138 0 188 100 188 253C504-87 415 10 246 9zm162-268c-2-99-23-191-119-191-71 0-105 57-122 115v279c24 13 61 22 99 21 105-4 144-101 142-224" id="ai"/><g id="q"><use transform="matrix(0.01674,0,0,0.01674,0,0)" xlink:href="#ai"/><use transform="matrix(0.01674,0,0,0.01674,9.1233,0)" xlink:href="#ad"/><use transform="matrix(0.01674,0,0,0.01674,18.73206,0)" xlink:href="#w"/></g><path fill="#fff" d="M596-450c-71 0-97 57-113 117v284c23 7 45 15 65 24V0H334v-25c16-10 36-19 59-24v-231c-2-88-4-170-91-170-68 0-97 53-115 107v294c22 7 41 13 59 24V0H31v-25c19-10 43-18 66-24v-393l-66-8v-26c47-18 93-35 156-36 1 37-1 77 1 113 20-58 72-113 150-113 87 0 127 45 138 123 22-67 72-123 158-123 124 0 145 87 145 212v251c23 4 45 12 66 24V0H630v-25c20-11 40-19 59-24v-249c0-83-9-153-93-152" id="aj"/><g id="r"><use transform="matrix(0.01674,0,0,0.01674,0,0)" xlink:href="#ad"/><use transform="matrix(0.01674,0,0,0.01674,9.60876,0)" xlink:href="#C"/><use transform="matrix(0.01674,0,0,0.01674,19.55232,0)" xlink:href="#G"/><use transform="matrix(0.01674,0,0,0.01674,27.353160000000003,0)" xlink:href="#af"/><use transform="matrix(0.01674,0,0,0.01674,32.39190000000001,0)" xlink:href="#x"/><use transform="matrix(0.01674,0,0,0.01674,40.845600000000005,0)" xlink:href="#B"/><use transform="matrix(0.01674,0,0,0.01674,45.88434000000001,0)" xlink:href="#aj"/><use transform="matrix(0.01674,0,0,0.01674,60.33096000000001,0)" xlink:href="#z"/><use transform="matrix(0.01674,0,0,0.01674,68.75118,0)" xlink:href="#J"/><use transform="matrix(0.01674,0,0,0.01674,78.04188,0)" xlink:href="#ah"/></g><g id="s"><use transform="matrix(0.008680555555555556,0,0,0.008680555555555556,0,0)" xlink:href="#N"/><use transform="matrix(0.008680555555555556,0,0,0.008680555555555556,10.668402777777779,0)" xlink:href="#O"/><use transform="matrix(0.008680555555555556,0,0,0.008680555555555556,21.336805555555557,0)" xlink:href="#P"/><use transform="matrix(0.008680555555555556,0,0,0.008680555555555556,32.005208333333336,0)" xlink:href="#Q"/><use transform="matrix(0.008680555555555556,0,0,0.008680555555555556,42.673611111111114,0)" xlink:href="#R"/></g><path fill="#fff" d="M539-647H152v-150h387v-389h149v389h387v150H688v385H539v-385" id="ak"/><use transform="matrix(0.008680555555555556,0,0,0.008680555555555556,0,0)" xlink:href="#ak" id="t"/><path fill="#fff" d="M442-897c93-139 173-221 377-221 79 0 159 15 240 45l-49 166c-82-30-157-45-224-45-221 0-340 134-340 360V0H264v-1098h148l22 201h8" id="al"/><path fill="#fff" d="M813 0c-67-308-137-613-199-926h-6C551-608 477-306 408 0H219L-4-1098h162c53 313 118 604 155 936h6c53-329 132-625 201-936h193c63 300 147 629 194 936h6c45-366 103-603 162-936h158L1008 0H813" id="am"/><g id="u"><use transform="matrix(0.008680555555555556,0,0,0.008680555555555556,0,0)" xlink:href="#al"/><use transform="matrix(0.008680555555555556,0,0,0.008680555555555556,10.668402777777779,0)" xlink:href="#R"/><use transform="matrix(0.008680555555555556,0,0,0.008680555555555556,21.336805555555557,0)" xlink:href="#am"/><use transform="matrix(0.008680555555555556,0,0,0.008680555555555556,32.005208333333336,0)" xlink:href="#P"/><use transform="matrix(0.008680555555555556,0,0,0.008680555555555556,42.673611111111114,0)" xlink:href="#al"/><use transform="matrix(0.008680555555555556,0,0,0.008680555555555556,53.34201388888889,0)" xlink:href="#X"/><use transform="matrix(0.008680555555555556,0,0,0.008680555555555556,64.01041666666667,0)" xlink:href="#N"/></g></defs></g></svg>